SRRun01_grf
version=1
nRows=30
nColumns=19
inDegrees=no
endheader
time	ground_force_r_vx	ground_force_r_vy	ground_force_r_vz	ground_force_r_px	ground_force_r_py	ground_force_r_pz	ground_force_r_mx	ground_force_r_my	ground_force_r_mz	ground_force_l_vx	ground_force_l_vy	ground_force_l_vz	ground_force_l_px	ground_force_l_py	ground_force_l_pz	ground_force_l_mx	ground_force_l_my	ground_force_l_mz
    139.99600000	    -51.45711216	   1219.37205304	    156.57160724	      0.85923538	      0.00000000	     -1.23867915	      0.00011891	    -11.05074412	      0.00003397	      0.00000000	      0.00000000	      0.00000000	      0.00000000	      0.00000000	      0.00000000	      0.00000000	      0.00000000	      0.00000000
    139.99700000	    -40.52509799	   1237.81121255	    166.97718123	      0.86052334	      0.00000000	     -1.23603119	      0.00011044	    -15.19465782	      0.00003471	      0.00000000	      0.00000000	      0.00000000	      0.00000000	      0.00000000	      0.00000000	      0.00000000	      0.00000000	      0.00000000
    139.99800000	    -29.89316387	   1256.28613245	    176.46720571	      0.86177957	      0.00000000	     -1.23344510	      0.00010231	    -18.59123880	      0.00003587	      0.00000000	      0.00000000	      0.00000000	      0.00000000	      0.00000000	      0.00000000	      0.00000000	      0.00000000	      0.00000000
    139.99900000	    -19.98395461	   1274.49883791	    184.62168592	      0.86295530	      0.00000000	     -1.23093542	      0.00009468	    -20.97852610	      0.00003732	      0.00000000	      0.00000000	      0.00000000	      0.00000000	      0.00000000	      0.00000000	      0.00000000	      0.00000000	      0.00000000
    140.00000000	    -11.20057018	   1292.20398440	    191.09137013	      0.86400832	      0.00000000	     -1.22852325	      0.00008768	    -22.17380646	      0.00003894	      0.00000000	      0.00000000	      0.00000000	      0.00000000	      0.00000000	      0.00000000	      0.00000000	      0.00000000	      0.00000000
    140.00100000	     -3.90225266	   1309.21749828	    195.62847380	      0.86490569	      0.00000000	     -1.22623625	      0.00008140	    -22.09597635	      0.00004064	      0.00000000	      0.00000000	      0.00000000	      0.00000000	      0.00000000	      0.00000000	      0.00000000	      0.00000000	      0.00000000
    140.00200000	      1.61667415	   1325.41788574	    198.11117393	      0.86562501	      0.00000000	     -1.22410540	      0.00007588	    -20.77737692	      0.00004238	      0.00000000	      0.00000000	      0.00000000	      0.00000000	      0.00000000	      0.00000000	      0.00000000	      0.00000000	      0.00000000
    140.00300000	      5.14387104	   1340.74084967	    198.55836950	      0.86615446	      0.00000000	     -1.22215949	      0.00007110	    -18.36362271	      0.00004412	      0.00000000	      0.00000000	      0.00000000	      0.00000000	      0.00000000	      0.00000000	      0.00000000	      0.00000000	      0.00000000
    140.00400000	      6.56182429	   1355.16885797	    197.13188552	      0.86649210	      0.00000000	     -1.22041871	      0.00006704	    -15.10141647	      0.00004588	      0.00000000	      0.00000000	      0.00000000	      0.00000000	      0.00000000	      0.00000000	      0.00000000	      0.00000000	      0.00000000
    140.00500000	      5.85628551	   1368.71792490	    194.12473005	      0.86664454	      0.00000000	     -1.21888907	      0.00006364	    -11.31568031	      0.00004768	      0.00000000	      0.00000000	      0.00000000	      0.00000000	      0.00000000	      0.00000000	      0.00000000	      0.00000000	      0.00000000
    140.00600000	      3.11987735	   1381.42398430	    189.93579440	      0.86662568	      0.00000000	     -1.21755886	      0.00006082	     -7.37846102	      0.00004956	      0.00000000	      0.00000000	      0.00000000	      0.00000000	      0.00000000	      0.00000000	      0.00000000	      0.00000000	      0.00000000
    140.00700000	     -1.44981486	   1393.33098382	    185.03308499	      0.86645546	      0.00000000	     -1.21639824	      0.00005855	     -3.67292534	      0.00005154	      0.00000000	      0.00000000	      0.00000000	      0.00000000	      0.00000000	      0.00000000	      0.00000000	      0.00000000	      0.00000000
    140.00800000	     -7.55835776	   1404.48229519	    179.90902143	      0.86615881	      0.00000000	     -1.21536181	      0.00005680	     -0.55622954	      0.00005362	      0.00000000	      0.00000000	      0.00000000	      0.00000000	      0.00000000	      0.00000000	      0.00000000	      0.00000000	      0.00000000
    140.00900000	    -14.82922175	   1414.91624336	    175.03250858	      0.86576468	      0.00000000	     -1.21439380	      0.00005556	      1.67498261	      0.00005579	      0.00000000	      0.00000000	      0.00000000	      0.00000000	      0.00000000	      0.00000000	      0.00000000	      0.00000000	      0.00000000
    140.01000000	    -22.82511459	   1424.66565724	    170.80326022	      0.86530521	      0.00000000	     -1.21343472	      0.00005487	      2.81317680	      0.00005803	      0.00000000	      0.00000000	      0.00000000	      0.00000000	      0.00000000	      0.00000000	      0.00000000	      0.00000000	      0.00000000
    140.01100000	    -31.07516964	   1433.76059709	    167.51392221	      0.86481456	      0.00000000	     -1.21242809	      0.00005473	      2.76006899	      0.00006028	      0.00000000	      0.00000000	      0.00000000	      0.00000000	      0.00000000	      0.00000000	      0.00000000	      0.00000000	      0.00000000
    140.01200000	    -39.10644450	   1442.23297403	    165.32468477	      0.86432758	      0.00000000	     -1.21132594	      0.00005518	      1.53656683	      0.00006250	      0.00000000	      0.00000000	      0.00000000	      0.00000000	      0.00000000	      0.00000000	      0.00000000	      0.00000000	      0.00000000
    140.01300000	    -46.47734591	   1450.12159448	    164.25336939	      0.86387811	      0.00000000	     -1.21009219	      0.00005622	     -0.71837017	      0.00006462	      0.00000000	      0.00000000	      0.00000000	      0.00000000	      0.00000000	      0.00000000	      0.00000000	      0.00000000	      0.00000000
    140.01400000	    -52.80992104	   1457.47616465	    164.18182672	      0.86349695	      0.00000000	     -1.20870364	      0.00005782	     -3.75993468	      0.00006657	      0.00000000	      0.00000000	      0.00000000	      0.00000000	      0.00000000	      0.00000000	      0.00000000	      0.00000000	      0.00000000
    140.01500000	    -57.81761524	   1464.35905008	    164.87736152	      0.86320976	      0.00000000	     -1.20714912	      0.00005994	     -7.25985684	      0.00006828	      0.00000000	      0.00000000	      0.00000000	      0.00000000	      0.00000000	      0.00000000	      0.00000000	      0.00000000	      0.00000000
    140.01600000	    -61.32524725	   1470.84417414	    166.02613269	      0.86303528	      0.00000000	     -1.20542754	      0.00006254	    -10.83726147	      0.00006967	      0.00000000	      0.00000000	      0.00000000	      0.00000000	      0.00000000	      0.00000000	      0.00000000	      0.00000000	      0.00000000
    140.01700000	    -63.27871931	   1477.01319092	    167.27423239	      0.86298410	      0.00000000	     -1.20354565	      0.00006557	    -14.09547941	      0.00007070	      0.00000000	      0.00000000	      0.00000000	      0.00000000	      0.00000000	      0.00000000	      0.00000000	      0.00000000	      0.00000000
    140.01800000	    -63.74330129	   1482.94970672	    168.27148810	      0.86305819	      0.00000000	     -1.20151637	      0.00006899	    -16.66157464	      0.00007132	      0.00000000	      0.00000000	      0.00000000	      0.00000000	      0.00000000	      0.00000000	      0.00000000	      0.00000000	      0.00000000
    140.01900000	    -62.89088077	   1488.73269844	    168.71297223	      0.86325101	      0.00000000	     -1.19935774	      0.00007275	    -18.22489144	      0.00007152	      0.00000000	      0.00000000	      0.00000000	      0.00000000	      0.00000000	      0.00000000	      0.00000000	      0.00000000	      0.00000000
    140.02000000	    -60.97792914	   1494.43035603	    168.37373738	      0.86354836	      0.00000000	     -1.19709253	      0.00007679	    -18.57084971	      0.00007131	      0.00000000	      0.00000000	      0.00000000	      0.00000000	      0.00000000	      0.00000000	      0.00000000	      0.00000000	      0.00000000
    140.02100000	    -58.31682649	   1500.09541807	    167.13327503	      0.86392956	      0.00000000	     -1.19474804	      0.00008102	    -17.60651872	      0.00007074	      0.00000000	      0.00000000	      0.00000000	      0.00000000	      0.00000000	      0.00000000	      0.00000000	      0.00000000	      0.00000000
    140.02200000	    -55.24366305	   1505.76273061	    164.98736196	      0.86436920	      0.00000000	     -1.19235555	      0.00008531	    -15.37512940	      0.00006990	      0.00000000	      0.00000000	      0.00000000	      0.00000000	      0.00000000	      0.00000000	      0.00000000	      0.00000000	      0.00000000
    140.02300000	    -52.08585742	   1511.44926812	    162.04613791	      0.86483908	      0.00000000	     -1.18994950	      0.00008947	    -12.05756643	      0.00006887	      0.00000000	      0.00000000	      0.00000000	      0.00000000	      0.00000000	      0.00000000	      0.00000000	      0.00000000	      0.00000000
    140.02400000	    -49.13289985	   1517.15639138	    158.51848747	      0.86531045	      0.00000000	     -1.18756608	      0.00009329	     -7.95997181	      0.00006778	      0.00000000	      0.00000000	      0.00000000	      0.00000000	      0.00000000	      0.00000000	      0.00000000	      0.00000000	      0.00000000
    140.02500000	    -46.61315184	   1522.87389668	    154.68417838	      0.86575640	      0.00000000	     -1.18524162	      0.00009655	     -3.48788196	      0.00006674	      0.00000000	      0.00000000	      0.00000000	      0.00000000	      0.00000000	      0.00000000	      0.00000000	      0.00000000	      0.00000000
